Coordinates
version=1
nRows=8
nColumns=36
inDegrees=yes

Units are S.I. units (second, meters, Newtons, ...)
If the header above contains a line with 'inDegrees', this indicates whether rotational values are in degrees (yes) or radians (no).

endheader
time	pelvis_tilt	pelvis_list	pelvis_rotation	pelvis_tx	pelvis_ty	pelvis_tz	hip_flexion_r	hip_adduction_r	hip_rotation_r	knee_angle_r	knee_angle_r_beta	ankle_angle_r	subtalar_angle_r	mtp_angle_r	hip_flexion_l	hip_adduction_l	hip_rotation_l	knee_angle_l	knee_angle_l_beta	ankle_angle_l	subtalar_angle_l	mtp_angle_l	lumbar_extension	lumbar_bending	lumbar_rotation	arm_flex_r	arm_add_r	arm_rot_r	elbow_flex_r	pro_sup_r	arm_flex_l	arm_add_l	arm_rot_l	elbow_flex_l	pro_sup_l
      1.45416670	     -1.42732001	      0.06156081	      1.59852175	     -1.09682624	      1.31415039	     -0.06960924	      4.71713828	      0.85412470	     -2.54671299	      9.04602435	      0.15788291	      0.24231045	    -16.62408217	     -7.49999987	      9.01741856	      0.74445453	      0.98346480	     17.87183772	      0.31192241	      5.05798853	     -4.00809956	     -7.49999987	    -18.66459774	      1.73870802	      0.35924028	      3.26729841	     -8.81166421	      5.24322881	     30.89498678	     81.43185047	      3.36874866	     -9.32133504	     12.61909688	     26.93833533	     89.68542226
      1.45833330	     -1.37930399	      0.04500129	      1.75785915	     -1.09811555	      1.31315335	     -0.06976290	      4.90117522	      0.82677442	     -3.08499777	      9.29310207	      0.16219523	      0.15568565	    -16.40863730	     -7.49999987	      9.27666281	      0.71534250	      0.93670284	     18.32181382	      0.31977598	      5.07441891	     -3.88538576	     -7.49999987	    -19.23681296	      1.80799214	      0.19896623	      3.23255652	     -8.83819175	      5.07804161	     30.95729410	     79.11811337	      3.28310605	     -9.35709103	     12.46948749	     26.98953633	     86.75982963
      1.46250000	     -1.48166418	      0.04758328	      1.82707519	     -1.09959536	      1.31275338	     -0.06945505	      5.35569670	      0.82500057	     -3.08218845	      9.70134373	      0.16932039	     -0.29185263	    -17.26611191	     -7.49999987	      9.71286537	      0.71006683	      0.97559587	     18.80784647	      0.32825885	      5.00080781	     -4.13518649	     -7.49999987	    -19.61930610	      1.81024442	      0.17102669	      3.24826301	     -8.91378182	      5.07953283	     30.84390017	     78.28330096	      3.28321453	     -9.43162722	     12.49817314	     26.83767742	     85.88837764
      1.46666670	     -1.62758891	      0.02134761	      1.84407805	     -1.10064099	      1.31161351	     -0.06992464	      5.86186155	      0.85334111	     -3.02543841	     10.14446673	      0.17705435	     -0.47059841	    -17.86158157	     -7.49999987	     10.23189013	      0.67773269	      0.94376621	     19.29020204	      0.33667754	      5.19984362	     -3.96512845	     -7.49999987	    -19.87858343	      1.82056141	      0.21249800	      3.25194062	     -9.02517417	      5.04017430	     30.53631740	     80.25052320	      3.28598788	     -9.52366455	     12.66808458	     26.49982635	     88.03953076
      1.47083330	     -1.65978266	     -0.00976155	      1.92446950	     -1.10138908	      1.31254377	     -0.07084321	      6.21950122	      0.82806611	     -3.24981364	     10.59821053	      0.18497367	     -0.74118666	    -18.33664695	     -7.49999987	     10.60287169	      0.70912760	      1.14082661	     19.68497394	      0.34356761	      5.34643600	     -3.92135862	     -7.49999987	    -20.30177422	      1.91450809	      0.10234531	      3.25572222	     -9.09264051	      4.83911849	     30.44738190	     78.68973826	      3.14397080	     -9.46473330	     12.33482066	     26.38343503	     85.98760019
      1.47500000	     -1.64368618	     -0.03864097	      1.99166014	     -1.10262397	      1.31059444	     -0.07019627	      6.53663420	      0.82320251	     -3.28939550	     11.09276616	      0.19360529	     -0.57387527	    -18.37427220	     -7.49999987	     10.96744128	      0.69511825	      1.29766629	     20.12646844	      0.35127314	      5.68416040	     -3.70768657	     -7.49999987	    -20.78976498	      1.99395415	      0.04214561	      3.16218840	     -9.10708994	      4.01901927	     30.39562427	     80.99854641	      2.99603017	     -9.44328936	     11.47665696	     26.30373619	     88.31790280
      1.47916670	     -1.77115118	     -0.07827159	      2.05997089	     -1.10254852	      1.30666393	     -0.07125941	      6.97840087	      0.83420062	     -3.16341278	     11.57797031	      0.20207370	     -0.55585916	    -18.66702904	     -7.49999987	     11.48429294	      0.66029553	      1.35971190	     20.69410397	      0.36118025	      6.09423610	     -3.52454722	     -7.49999987	    -20.99095607	      2.09674417	     -0.01599593	      3.00599595	     -9.16947748	      3.75466676	     30.25452261	     80.58131472	      2.76993703	     -9.44937960	     11.18412518	     26.05759882	     87.67591829
      1.48333330	     -1.83606947	     -0.09617004	      2.09888576	     -1.10376292	      1.30668793	     -0.07090180	      7.34004274	      0.82673547	     -3.11431451	     11.97094391	      0.20893239	     -0.57335992	    -18.92760695	     -7.49999987	     11.83026518	      0.65287199	      1.51431698	     21.00454449	      0.36659846	      6.27407968	     -3.53202244	     -7.49999987	    -21.33814359	      2.20612476	     -0.06458712	      2.87402986	     -9.31936347	      3.58767427	     30.25862450	     79.29933104	      2.55554808	     -9.43026304	     11.11859077	     25.94046098	     86.28132519
